<?xml version="1.0" encoding="utf-8"?>
<!-- Generator: Adobe Illustrator 25.4.1, SVG Export Plug-In . SVG Version: 6.00 Build 0)  -->
<svg version="1.1" data-id="Layer_1" xmlns="http://www.w3.org/2000/svg" xmlns:xlink="http://www.w3.org/1999/xlink" x="0px" y="0px"
	 viewBox="0 0 255.1 49.2" style="enable-background:new 0 0 255.1 49.2;" xml:space="preserve">
<style type="text/css">
	.st0{fill:#262626;}
	.st1{fill:#A42C21;}
</style>
<g>
	<g>
		<path class="st0" d="M83.1,37.2c-1.1,0-2.2-0.6-2.5-1.7L78.4,29H67.1l-2.2,6.5c-0.4,1.1-1.5,1.8-2.6,1.8c-1.6,0-2.7-1.3-2.7-2.8
			c0-0.4,0-0.7,0.2-1l7.7-21.3c0.9-2.6,2.9-3.9,5.3-3.9c2.6,0,4.4,1.3,5.4,3.9l7.6,21.3c0.1,0.2,0.2,0.6,0.2,0.9
			C85.9,35.8,84.7,37.2,83.1,37.2z M68.8,24h7.9l-3.3-9.6c-0.1-0.4-0.3-0.5-0.6-0.5c-0.4,0-0.6,0.2-0.7,0.5L68.8,24z"/>
		<path class="st0" d="M109.2,29.5L109.2,29.5c0-2.7,0-4.8,0-6.4V11.3c0-1.6,1.2-2.8,2.7-2.8c1.6,0,2.7,1.2,2.7,2.8V33
			c0,2.4-1.6,4.2-4,4.2c-1.7,0-3.1-0.8-4-2.5l-11-19h-0.1c0,1.4,0.1,3.7,0.1,6.8v11.9c0,1.6-1.1,2.9-2.7,2.9c-1.5,0-2.8-1.3-2.8-2.9
			V13.1c0-2.7,1.8-4.6,4.4-4.6c1.7,0,3,0.8,4,2.4L109.2,29.5z"/>
		<path class="st0" d="M123.6,9.6l7.8,9.8l7.9-9.8c1-1.2,2.7-1.5,4-0.4c1.2,1,1.4,2.8,0.4,4.1l-8.3,10l-0.6,0.8
			c-0.2,0.2-0.4,0.8-0.4,1.5v8.9c0,1.6-1.2,2.8-2.8,2.8c-1.5,0-2.8-1.3-2.8-2.8v-8.9c0-0.4-0.1-0.6-0.2-0.9
			c-0.2-0.6-0.3-0.6-0.9-1.4l-8.3-10c-0.4-0.5-0.7-1.2-0.7-1.9c0-1.5,1.3-2.8,2.8-2.8C122.3,8.5,123,8.8,123.6,9.6z"/>
		<path class="st0" d="M149,11.6c0-1.6,1-2.7,2.8-2.7h13.8c1,0,1.7,0.6,1.7,1.6c0,0.8-0.8,1.6-1.7,1.6h-13.3v9.9h12.7
			c0.9,0,1.7,0.7,1.7,1.6c0,0.8-0.8,1.6-1.7,1.6h-12.7v10.5c0,0.9-0.7,1.7-1.7,1.7c-0.8,0-1.7-0.8-1.7-1.7V11.6z"/>
		<path class="st0" d="M173.1,10.4c0-0.9,0.7-1.7,1.7-1.7c1,0,1.7,0.7,1.7,1.7v25.2c0,1-0.7,1.7-1.7,1.7c-0.9,0-1.7-0.8-1.7-1.7
			V10.4z"/>
		<path class="st0" d="M201.5,8.8c0.9,0,1.7,0.7,1.7,1.6c0,0.8-0.8,1.6-1.7,1.6h-13.4v9.3h13.1c0.9,0,1.6,0.6,1.6,1.6
			c0,0.8-0.8,1.6-1.6,1.6h-13.1v9.5h13.5c0.8,0,1.7,0.7,1.7,1.6c0,0.9-0.7,1.6-1.7,1.6h-14c-1.8,0-2.8-1.2-2.8-2.7V11.6
			c0-1.6,1-2.7,2.8-2.7H201.5z"/>
		<path class="st0" d="M210.2,10.4c0-0.9,0.7-1.7,1.7-1.7c1,0,1.7,0.7,1.7,1.7v23.5h13.2c0.9,0,1.7,0.7,1.7,1.6c0,1-0.7,1.6-1.7,1.6
			h-13.8c-1.7,0-2.7-1.1-2.7-2.6V10.4z"/>
		<path class="st0" d="M235.7,37.1c-1.7,0-2.8-1.2-2.8-2.7V11.6c0-1.6,1-2.7,2.8-2.7h6.7c4,0,7,1.1,9.1,3.3c2.1,2.2,3.3,5.1,3.5,8.7
			c0.1,1.5,0.1,3,0,4.4c-0.2,3.6-1.4,6.5-3.5,8.7c-2.1,2.2-5.2,3.3-9.1,3.3H235.7z M251.8,20.9c-0.3-5.5-3.3-8.9-9.4-8.9h-6.2v21.9
			h6.2c6,0,9-3.3,9.4-8.8C251.8,23.6,251.8,22.2,251.8,20.9z"/>
	</g>
	<g>
		<g>
			<circle class="st1" cx="44.3" cy="23" r="8.2"/>
			<path class="st1" d="M43.7,39.3c0,3.9-3.2,7.1-7.1,7.1s-7.1-3.2-7.1-7.1s3.2-7.1,7.1-7.1S43.7,35.3,43.7,39.3z"/>
			<path class="st1" d="M25,43.2c0,3.3-2.7,6.1-6.1,6.1c-3.3,0-6.1-2.7-6.1-6.1c0-3.3,2.7-6.1,6.1-6.1C22.3,37.1,25,39.8,25,43.2z"
				/>
			<path class="st1" d="M10.1,32.1c0,2.8-2.3,5.1-5.1,5.1S0,34.9,0,32.1s2.3-5.1,5.1-5.1S10.1,29.3,10.1,32.1z"/>
			<circle class="st1" cx="5" cy="14" r="4"/>
			<path class="st1" d="M21.9,2.9c0,1.6-1.3,2.9-2.9,2.9c-1.6,0-2.9-1.3-2.9-2.9S17.4,0,19,0C20.6,0,21.9,1.3,21.9,2.9z"/>
			<path class="st1" d="M38.4,6.9c0,1-0.8,1.8-1.8,1.8c-1,0-1.8-0.8-1.8-1.8s0.8-1.8,1.8-1.8C37.6,5.1,38.4,5.9,38.4,6.9z"/>
		</g>
		<g>
			<circle class="st1" cx="14.1" cy="23" r="3.8"/>
			<path class="st1" d="M14.4,30.4c0,1.8,1.5,3.3,3.3,3.3s3.3-1.5,3.3-3.3c0-1.8-1.5-3.3-3.3-3.3S14.4,28.6,14.4,30.4z"/>
			<path class="st1" d="M23,32.2c0,1.5,1.2,2.8,2.8,2.8c1.5,0,2.8-1.2,2.8-2.8c0-1.5-1.2-2.8-2.8-2.8C24.3,29.4,23,30.7,23,32.2z"/>
			<path class="st1" d="M29.9,27.2c0,1.3,1,2.3,2.3,2.3c1.3,0,2.3-1,2.3-2.3c0-1.3-1-2.3-2.3-2.3C30.9,24.8,29.9,25.9,29.9,27.2z"/>
			<path class="st1" d="M30.4,18.8c0,1,0.8,1.8,1.8,1.8c1,0,1.8-0.8,1.8-1.8c0-1-0.8-1.8-1.8-1.8C31.2,17,30.4,17.8,30.4,18.8z"/>
			<circle class="st1" cx="25.8" cy="13.7" r="1.3"/>
			<path class="st1" d="M16.9,15.5c0,0.5,0.4,0.8,0.8,0.8c0.5,0,0.8-0.4,0.8-0.8c0-0.5-0.4-0.8-0.8-0.8
				C17.2,14.7,16.9,15.1,16.9,15.5z"/>
		</g>
	</g>
</g>
</svg>
